<?xml version="1.0" encoding="UTF-8"?>
<svg xmlns="http://www.w3.org/2000/svg" version="1.1" viewBox="0 0 141.7 141.7">
  <defs>
    <style>
      .cls-1 {
        fill: #fff;
      }

      .cls-2 {
        fill: #79cbb8;
        stroke: #500472;
        stroke-miterlimit: 10;
      }
    </style>
  </defs>
  <!-- Generator: Adobe Illustrator 28.7.1, SVG Export Plug-In . SVG Version: 1.2.0 Build 142)  -->
  <g>
    <g id="Calque_1">
      <g>
        <path class="cls-2" d="M71.4,77.1s0,10,0,10c-.8,10.6,5.2,27.8,26.9,27.8s26.1-9.9,26.1-28.3v-1.3h-13.3v1.3c0,10.8-5,15.9-12.7,15.9s-13.3-4.8-14.1-15.4c0,0,0-10,0-10v-3.4s0-13.4,0-13.4c.8-10.6,5.4-15.4,14.1-15.4s12.7,5,12.7,15.9v4.3h13.3v-4.3c0-18.3-10.2-28.3-26.1-28.3s-15.8,2.9-20.4,8.4c-4.6-5.5-11.5-8.4-20.4-8.4s-15.2,2.8-19.7,8.1c-1.9-2.3-4.3-4.1-7-5.4l-7.6,10.5c4.8,1.7,7.6,6,8.3,13.3,0,.6,0,1.2,0,1.9v52.3h13.3v-52.3c0-10.8,5-15.9,12.7-15.9s13.3,4.8,14.1,15.4c0,0,0,13.4,0,13.4v3.4Z"/>
        <path class="cls-2" d="M71.3,77.1s0,10,0,10c-.8,10.6,5.2,27.8,26.9,27.8s26.1-9.9,26.1-28.3v-1.3h-13.3v1.3c0,10.8-5,15.9-12.7,15.9s-13.3-4.8-14.1-15.4c0,0,0-10,0-10v-3.4s0-13.4,0-13.4c.8-10.6,5.4-15.4,14.1-15.4s12.7,5,12.7,15.9v4.3h13.3v-4.3c0-18.3-10.2-28.3-26.1-28.3s-15.8,2.9-20.4,8.4c-4.6-5.5-11.5-8.4-20.4-8.4s-15.2,2.8-19.7,8.1c-1.9-2.3-4.3-4.1-7-5.4l-7.6,10.5c4.8,1.7,7.6,6,8.3,13.3,0,.6,0,1.2,0,1.9v52.3h13.3v-52.3c0-10.8,5-15.9,12.7-15.9s13.3,4.8,14.1,15.4c0,0,0,13.4,0,13.4v3.4Z"/>
        <path class="cls-2" d="M71.2,77s0,10,0,10c-.8,10.6,5.2,27.8,26.9,27.8s26.1-9.9,26.1-28.3v-1.3h-13.3v1.3c0,10.8-5,15.9-12.7,15.9s-13.3-4.8-14.1-15.4c0,0,0-10,0-10v-3.4s0-13.4,0-13.4c.8-10.6,5.4-15.4,14.1-15.4s12.7,5,12.7,15.9v4.3h13.3v-4.3c0-18.3-10.2-28.3-26.1-28.3s-15.8,2.9-20.4,8.4c-4.6-5.5-11.5-8.4-20.4-8.4s-15.2,2.8-19.7,8.1c-1.9-2.3-4.3-4.1-7-5.4l-7.6,10.5c4.8,1.7,7.6,6,8.3,13.3,0,.6,0,1.2,0,1.9v52.3h13.3v-52.3c0-10.8,5-15.9,12.7-15.9s13.3,4.8,14.1,15.4c0,0,0,13.4,0,13.4v3.4Z"/>
        <path class="cls-2" d="M71.2,76.9s0,10,0,10c-.8,10.6,5.2,27.8,26.9,27.8s26.1-9.9,26.1-28.3v-1.3h-13.3v1.3c0,10.8-5,15.9-12.7,15.9s-13.3-4.8-14.1-15.4c0,0,0-10,0-10v-3.4s0-13.4,0-13.4c.8-10.6,5.4-15.4,14.1-15.4s12.7,5,12.7,15.9v4.3h13.3v-4.3c0-18.3-10.2-28.3-26.1-28.3s-15.8,2.9-20.4,8.4c-4.6-5.5-11.5-8.4-20.4-8.4s-15.2,2.8-19.7,8.1c-1.9-2.3-4.3-4.1-7-5.4l-7.6,10.5c4.8,1.7,7.6,6,8.3,13.3,0,.6,0,1.2,0,1.9v52.3h13.3v-52.3c0-10.8,5-15.9,12.7-15.9s13.3,4.8,14.1,15.4c0,0,0,13.4,0,13.4v3.4Z"/>
        <path class="cls-2" d="M71.1,76.8s0,10,0,10c-.8,10.6,5.2,27.8,26.9,27.8s26.1-9.9,26.1-28.3v-1.3h-13.3v1.3c0,10.8-5,15.9-12.7,15.9s-13.3-4.8-14.1-15.4c0,0,0-10,0-10v-3.4s0-13.4,0-13.4c.8-10.6,5.4-15.4,14.1-15.4s12.7,5,12.7,15.9v4.3h13.3v-4.3c0-18.3-10.2-28.3-26.1-28.3s-15.8,2.9-20.4,8.4c-4.6-5.5-11.5-8.4-20.4-8.4s-15.2,2.8-19.7,8.1c-1.9-2.3-4.3-4.1-7-5.4l-7.6,10.5c4.8,1.7,7.6,6,8.3,13.3,0,.6,0,1.2,0,1.9v52.3h13.3v-52.3c0-10.8,5-15.9,12.7-15.9s13.3,4.8,14.1,15.4c0,0,0,13.4,0,13.4v3.4Z"/>
        <path class="cls-2" d="M71,76.8s0,10,0,10c-.8,10.6,5.2,27.8,26.9,27.8s26.1-9.9,26.1-28.3v-1.3h-13.3v1.3c0,10.8-5,15.9-12.7,15.9s-13.3-4.8-14.1-15.4c0,0,0-10,0-10v-3.4s0-13.4,0-13.4c.8-10.6,5.4-15.4,14.1-15.4s12.7,5,12.7,15.9v4.3h13.3v-4.3c0-18.3-10.2-28.3-26.1-28.3s-15.8,2.9-20.4,8.4c-4.6-5.5-11.5-8.4-20.4-8.4s-15.2,2.8-19.7,8.1c-1.9-2.3-4.3-4.1-7-5.4l-7.6,10.5c4.8,1.7,7.6,6,8.3,13.3,0,.6,0,1.2,0,1.9v52.3h13.3v-52.3c0-10.8,5-15.9,12.7-15.9s13.3,4.8,14.1,15.4c0,0,0,13.4,0,13.4v3.4Z"/>
        <path class="cls-2" d="M71,76.7s0,10,0,10c-.8,10.6,5.2,27.8,26.9,27.8s26.1-9.9,26.1-28.3v-1.3h-13.3v1.3c0,10.8-5,15.9-12.7,15.9s-13.3-4.8-14.1-15.4c0,0,0-10,0-10v-3.4s0-13.4,0-13.4c.8-10.6,5.4-15.4,14.1-15.4s12.7,5,12.7,15.9v4.3h13.3v-4.3c0-18.3-10.2-28.3-26.1-28.3s-15.8,2.9-20.4,8.4c-4.6-5.5-11.5-8.4-20.4-8.4s-15.2,2.8-19.7,8.1c-1.9-2.3-4.3-4.1-7-5.4l-7.6,10.5c4.8,1.7,7.6,6,8.3,13.3,0,.6,0,1.2,0,1.9v52.3h13.3v-52.3c0-10.8,5-15.9,12.7-15.9s13.3,4.8,14.1,15.4c0,0,0,13.4,0,13.4v3.4Z"/>
        <path class="cls-2" d="M70.9,76.6s0,10,0,10c-.8,10.6,5.2,27.8,26.9,27.8s26.1-9.9,26.1-28.3v-1.3h-13.3v1.3c0,10.8-5,15.9-12.7,15.9s-13.3-4.8-14.1-15.4c0,0,0-10,0-10v-3.4s0-13.4,0-13.4c.8-10.6,5.4-15.4,14.1-15.4s12.7,5,12.7,15.9v4.3h13.3v-4.3c0-18.3-10.2-28.3-26.1-28.3s-15.8,2.9-20.4,8.4c-4.6-5.5-11.5-8.4-20.4-8.4s-15.2,2.8-19.7,8.1c-1.9-2.3-4.3-4.1-7-5.4l-7.6,10.5c4.8,1.7,7.6,6,8.3,13.3,0,.6,0,1.2,0,1.9v52.3h13.3v-52.3c0-10.8,5-15.9,12.7-15.9s13.3,4.8,14.1,15.4c0,0,0,13.4,0,13.4v3.4Z"/>
        <path class="cls-2" d="M70.8,76.6s0,10,0,10c-.8,10.6,5.2,27.8,26.9,27.8s26.1-9.9,26.1-28.3v-1.3h-13.3v1.3c0,10.8-5,15.9-12.7,15.9s-13.3-4.8-14.1-15.4c0,0,0-10,0-10v-3.4s0-13.4,0-13.4c.8-10.6,5.4-15.4,14.1-15.4s12.7,5,12.7,15.9v4.3h13.3v-4.3c0-18.3-10.2-28.3-26.1-28.3s-15.8,2.9-20.4,8.4c-4.6-5.5-11.5-8.4-20.4-8.4s-15.2,2.8-19.7,8.1c-1.9-2.3-4.3-4.1-7-5.4l-7.6,10.5c4.8,1.7,7.6,6,8.3,13.3,0,.6,0,1.2,0,1.9v52.3h13.3v-52.3c0-10.8,5-15.9,12.7-15.9s13.3,4.8,14.1,15.4c0,0,0,13.4,0,13.4v3.4Z"/>
        <path class="cls-2" d="M70.8,76.5s0,10,0,10c-.8,10.6,5.2,27.8,26.9,27.8s26.1-9.9,26.1-28.3v-1.3h-13.3v1.3c0,10.8-5,15.9-12.7,15.9s-13.3-4.8-14.1-15.4c0,0,0-10,0-10v-3.4s0-13.4,0-13.4c.8-10.6,5.4-15.4,14.1-15.4s12.7,5,12.7,15.9v4.3h13.3v-4.3c0-18.3-10.2-28.3-26.1-28.3s-15.8,2.9-20.4,8.4c-4.6-5.5-11.5-8.4-20.4-8.4s-15.2,2.8-19.7,8.1c-1.9-2.3-4.3-4.1-7-5.4l-7.6,10.5c4.8,1.7,7.6,6,8.3,13.3,0,.6,0,1.2,0,1.9v52.3h13.3v-52.3c0-10.8,5-15.9,12.7-15.9s13.3,4.8,14.1,15.4c0,0,0,13.4,0,13.4v3.4Z"/>
        <path class="cls-2" d="M70.7,76.4s0,10,0,10c-.8,10.6,5.2,27.8,26.9,27.8s26.1-9.9,26.1-28.3v-1.3h-13.3v1.3c0,10.8-5,15.9-12.7,15.9s-13.3-4.8-14.1-15.4c0,0,0-10,0-10v-3.4s0-13.4,0-13.4c.8-10.6,5.4-15.4,14.1-15.4s12.7,5,12.7,15.9v4.3h13.3v-4.3c0-18.3-10.2-28.3-26.1-28.3s-15.8,2.9-20.4,8.4c-4.6-5.5-11.5-8.4-20.4-8.4s-15.2,2.8-19.7,8.1c-1.9-2.3-4.3-4.1-7-5.4l-7.6,10.5c4.8,1.7,7.6,6,8.3,13.3,0,.6,0,1.2,0,1.9v52.3h13.3v-52.3c0-10.8,5-15.9,12.7-15.9s13.3,4.8,14.1,15.4c0,0,0,13.4,0,13.4v3.4Z"/>
        <path class="cls-2" d="M70.6,76.3s0,10,0,10c-.8,10.6,5.2,27.8,26.9,27.8s26.1-9.9,26.1-28.3v-1.3h-13.3v1.3c0,10.8-5,15.9-12.7,15.9s-13.3-4.8-14.1-15.4c0,0,0-10,0-10v-3.4s0-13.4,0-13.4c.8-10.6,5.4-15.4,14.1-15.4s12.7,5,12.7,15.9v4.3h13.3v-4.3c0-18.3-10.2-28.3-26.1-28.3s-15.8,2.9-20.4,8.4c-4.6-5.5-11.5-8.4-20.4-8.4s-15.2,2.8-19.7,8.1c-1.9-2.3-4.3-4.1-7-5.4l-7.6,10.5c4.8,1.7,7.6,6,8.3,13.3,0,.6,0,1.2,0,1.9v52.3h13.3v-52.3c0-10.8,5-15.9,12.7-15.9s13.3,4.8,14.1,15.4c0,0,0,13.4,0,13.4v3.4Z"/>
        <path class="cls-2" d="M70.5,76.3s0,10,0,10c-.8,10.6,5.2,27.8,26.9,27.8s26.1-9.9,26.1-28.3v-1.3h-13.3v1.3c0,10.8-5,15.9-12.7,15.9s-13.3-4.8-14.1-15.4c0,0,0-10,0-10v-3.4s0-13.4,0-13.4c.8-10.6,5.4-15.4,14.1-15.4s12.7,5,12.7,15.9v4.3h13.3v-4.3c0-18.3-10.2-28.3-26.1-28.3s-15.8,2.9-20.4,8.4c-4.6-5.5-11.5-8.4-20.4-8.4s-15.2,2.8-19.7,8.1c-1.9-2.3-4.3-4.1-7-5.4l-7.6,10.5c4.8,1.7,7.6,6,8.3,13.3,0,.6,0,1.2,0,1.9v52.3h13.3v-52.3c0-10.8,5-15.9,12.7-15.9s13.3,4.8,14.1,15.4c0,0,0,13.4,0,13.4v3.4Z"/>
        <path class="cls-2" d="M70.5,76.2s0,10,0,10c-.8,10.6,5.2,27.8,26.9,27.8s26.1-9.9,26.1-28.3v-1.3h-13.3v1.3c0,10.8-5,15.9-12.7,15.9s-13.3-4.8-14.1-15.4c0,0,0-10,0-10v-3.4s0-13.4,0-13.4c.8-10.6,5.4-15.4,14.1-15.4s12.7,5,12.7,15.9v4.3h13.3v-4.3c0-18.3-10.2-28.3-26.1-28.3s-15.8,2.9-20.4,8.4c-4.6-5.5-11.5-8.4-20.4-8.4s-15.2,2.8-19.7,8.1c-1.9-2.3-4.3-4.1-7-5.4l-7.6,10.5c4.8,1.7,7.6,6,8.3,13.3,0,.6,0,1.2,0,1.9v52.3h13.3v-52.3c0-10.8,5-15.9,12.7-15.9s13.3,4.8,14.1,15.4c0,0,0,13.4,0,13.4v3.4Z"/>
        <path class="cls-2" d="M70.4,76.1s0,10,0,10c-.8,10.6,5.2,27.8,26.9,27.8s26.1-9.9,26.1-28.3v-1.3h-13.3v1.3c0,10.8-5,15.9-12.7,15.9s-13.3-4.8-14.1-15.4c0,0,0-10,0-10v-3.4s0-13.4,0-13.4c.8-10.6,5.4-15.4,14.1-15.4s12.7,5,12.7,15.9v4.3h13.3v-4.3c0-18.3-10.2-28.3-26.1-28.3s-15.8,2.9-20.4,8.4c-4.6-5.5-11.5-8.4-20.4-8.4s-15.2,2.8-19.7,8.1c-1.9-2.3-4.3-4.1-7-5.4l-7.6,10.5c4.8,1.7,7.6,6,8.3,13.3,0,.6,0,1.2,0,1.9v52.3h13.3v-52.3c0-10.8,5-15.9,12.7-15.9s13.3,4.8,14.1,15.4c0,0,0,13.4,0,13.4v3.4Z"/>
        <path class="cls-2" d="M70.3,76.1s0,10,0,10c-.8,10.6,5.2,27.8,26.9,27.8s26.1-9.9,26.1-28.3v-1.3h-13.3v1.3c0,10.8-5,15.9-12.7,15.9s-13.3-4.8-14.1-15.4c0,0,0-10,0-10v-3.4s0-13.4,0-13.4c.8-10.6,5.4-15.4,14.1-15.4s12.7,5,12.7,15.9v4.3h13.3v-4.3c0-18.3-10.2-28.3-26.1-28.3s-15.8,2.9-20.4,8.4c-4.6-5.5-11.5-8.4-20.4-8.4s-15.2,2.8-19.7,8.1c-1.9-2.3-4.3-4.1-7-5.4l-7.6,10.5c4.8,1.7,7.6,6,8.3,13.3,0,.6,0,1.2,0,1.9v52.3h13.3v-52.3c0-10.8,5-15.9,12.7-15.9s13.3,4.8,14.1,15.4c0,0,0,13.4,0,13.4v3.4Z"/>
        <path class="cls-2" d="M70.3,76s0,10,0,10c-.8,10.6,5.2,27.8,26.9,27.8s26.1-9.9,26.1-28.3v-1.3h-13.3v1.3c0,10.8-5,15.9-12.7,15.9s-13.3-4.8-14.1-15.4c0,0,0-10,0-10v-3.4s0-13.4,0-13.4c.8-10.6,5.4-15.4,14.1-15.4s12.7,5,12.7,15.9v4.3h13.3v-4.3c0-18.3-10.2-28.3-26.1-28.3s-15.8,2.9-20.4,8.4c-4.6-5.5-11.5-8.4-20.4-8.4s-15.2,2.8-19.7,8.1c-1.9-2.3-4.3-4.1-7-5.4l-7.6,10.5c4.8,1.7,7.6,6,8.3,13.3,0,.6,0,1.2,0,1.9v52.3h13.3v-52.3c0-10.8,5-15.9,12.7-15.9s13.3,4.8,14.1,15.4c0,0,0,13.4,0,13.4v3.4Z"/>
        <path class="cls-2" d="M70.2,75.9s0,10,0,10c-.8,10.6,5.2,27.8,26.9,27.8s26.1-9.9,26.1-28.3v-1.3h-13.3v1.3c0,10.8-5,15.9-12.7,15.9s-13.3-4.8-14.1-15.4c0,0,0-10,0-10v-3.4s0-13.4,0-13.4c.8-10.6,5.4-15.4,14.1-15.4s12.7,5,12.7,15.9v4.3h13.3v-4.3c0-18.3-10.2-28.3-26.1-28.3s-15.8,2.9-20.4,8.4c-4.6-5.5-11.5-8.4-20.4-8.4s-15.2,2.8-19.7,8.1c-1.9-2.3-4.3-4.1-7-5.4l-7.6,10.5c4.8,1.7,7.6,6,8.3,13.3,0,.6,0,1.2,0,1.9v52.3h13.3v-52.3c0-10.8,5-15.9,12.7-15.9s13.3,4.8,14.1,15.4c0,0,0,13.4,0,13.4v3.4Z"/>
        <path class="cls-2" d="M70.1,75.9s0,10,0,10c-.8,10.6,5.2,27.8,26.9,27.8s26.1-9.9,26.1-28.3v-1.3h-13.3v1.3c0,10.8-5,15.9-12.7,15.9s-13.3-4.8-14.1-15.4c0,0,0-10,0-10v-3.4s0-13.4,0-13.4c.8-10.6,5.4-15.4,14.1-15.4s12.7,5,12.7,15.9v4.3h13.3v-4.3c0-18.3-10.2-28.3-26.1-28.3s-15.8,2.9-20.4,8.4c-4.6-5.5-11.5-8.4-20.4-8.4s-15.2,2.8-19.7,8.1c-1.9-2.3-4.3-4.1-7-5.4l-7.6,10.5c4.8,1.7,7.6,6,8.3,13.3,0,.6,0,1.2,0,1.9v52.3h13.3v-52.3c0-10.8,5-15.9,12.7-15.9s13.3,4.8,14.1,15.4c0,0,0,13.4,0,13.4v3.4Z"/>
        <path class="cls-2" d="M70,75.8s0,10,0,10c-.8,10.6,5.2,27.8,26.9,27.8s26.1-9.9,26.1-28.3v-1.3h-13.3v1.3c0,10.8-5,15.9-12.7,15.9s-13.3-4.8-14.1-15.4c0,0,0-10,0-10v-3.4s0-13.4,0-13.4c.8-10.6,5.4-15.4,14.1-15.4s12.7,5,12.7,15.9v4.3h13.3v-4.3c0-18.3-10.2-28.3-26.1-28.3s-15.8,2.9-20.4,8.4c-4.6-5.5-11.5-8.4-20.4-8.4s-15.2,2.8-19.7,8.1c-1.9-2.3-4.3-4.1-7-5.4l-7.6,10.5c4.8,1.7,7.6,6,8.3,13.3,0,.6,0,1.2,0,1.9v52.3h13.3v-52.3c0-10.8,5-15.9,12.7-15.9s13.3,4.8,14.1,15.4c0,0,0,13.4,0,13.4v3.4Z"/>
        <path class="cls-2" d="M70,75.7s0,10,0,10c-.8,10.6,5.2,27.8,26.9,27.8s26.1-9.9,26.1-28.3v-1.3h-13.3v1.3c0,10.8-5,15.9-12.7,15.9s-13.3-4.8-14.1-15.4c0,0,0-10,0-10v-3.4s0-13.4,0-13.4c.8-10.6,5.4-15.4,14.1-15.4s12.7,5,12.7,15.9v4.3h13.3v-4.3c0-18.3-10.2-28.3-26.1-28.3s-15.8,2.9-20.4,8.4c-4.6-5.5-11.5-8.4-20.4-8.4s-15.2,2.8-19.7,8.1c-1.9-2.3-4.3-4.1-7-5.4l-7.6,10.5c4.8,1.7,7.6,6,8.3,13.3,0,.6,0,1.2,0,1.9v52.3h13.3v-52.3c0-10.8,5-15.9,12.7-15.9s13.3,4.8,14.1,15.4c0,0,0,13.4,0,13.4v3.4Z"/>
        <path class="cls-2" d="M69.9,75.6s0,10,0,10c-.8,10.6,5.2,27.8,26.9,27.8s26.1-9.9,26.1-28.3v-1.3h-13.3v1.3c0,10.8-5,15.9-12.7,15.9s-13.3-4.8-14.1-15.4c0,0,0-10,0-10v-3.4s0-13.4,0-13.4c.8-10.6,5.4-15.4,14.1-15.4s12.7,5,12.7,15.9v4.3h13.3v-4.3c0-18.3-10.2-28.3-26.1-28.3s-15.8,2.9-20.4,8.4c-4.6-5.5-11.5-8.4-20.4-8.4s-15.2,2.8-19.7,8.1c-1.9-2.3-4.3-4.1-7-5.4l-7.6,10.5c4.8,1.7,7.6,6,8.3,13.3,0,.6,0,1.2,0,1.9v52.3h13.3v-52.3c0-10.8,5-15.9,12.7-15.9s13.3,4.8,14.1,15.4c0,0,0,13.4,0,13.4v3.4Z"/>
        <path class="cls-2" d="M69.8,75.6s0,10,0,10c-.8,10.6,5.2,27.8,26.9,27.8s26.1-9.9,26.1-28.3v-1.3h-13.3v1.3c0,10.8-5,15.9-12.7,15.9s-13.3-4.8-14.1-15.4c0,0,0-10,0-10v-3.4s0-13.4,0-13.4c.8-10.6,5.4-15.4,14.1-15.4s12.7,5,12.7,15.9v4.3h13.3v-4.3c0-18.3-10.2-28.3-26.1-28.3s-15.8,2.9-20.4,8.4c-4.6-5.5-11.5-8.4-20.4-8.4s-15.2,2.8-19.7,8.1c-1.9-2.3-4.3-4.1-7-5.4l-7.6,10.5c4.8,1.7,7.6,6,8.3,13.3,0,.6,0,1.2,0,1.9v52.3h13.3v-52.3c0-10.8,5-15.9,12.7-15.9s13.3,4.8,14.1,15.4c0,0,0,13.4,0,13.4v3.4Z"/>
        <path class="cls-2" d="M69.8,75.5s0,10,0,10c-.8,10.6,5.2,27.8,26.9,27.8s26.1-9.9,26.1-28.3v-1.3h-13.3v1.3c0,10.8-5,15.9-12.7,15.9s-13.3-4.8-14.1-15.4c0,0,0-10,0-10v-3.4s0-13.4,0-13.4c.8-10.6,5.4-15.4,14.1-15.4s12.7,5,12.7,15.9v4.3h13.3v-4.3c0-18.3-10.2-28.3-26.1-28.3s-15.8,2.9-20.4,8.4c-4.6-5.5-11.5-8.4-20.4-8.4s-15.2,2.8-19.7,8.1c-1.9-2.3-4.3-4.1-7-5.4l-7.6,10.5c4.8,1.7,7.6,6,8.3,13.3,0,.6,0,1.2,0,1.9v52.3h13.3v-52.3c0-10.8,5-15.9,12.7-15.9s13.3,4.8,14.1,15.4c0,0,0,13.4,0,13.4v3.4Z"/>
        <path class="cls-2" d="M69.7,75.4s0,10,0,10c-.8,10.6,5.2,27.8,26.9,27.8s26.1-9.9,26.1-28.3v-1.3h-13.3v1.3c0,10.8-5,15.9-12.7,15.9s-13.3-4.8-14.1-15.4c0,0,0-10,0-10v-3.4s0-13.4,0-13.4c.8-10.6,5.4-15.4,14.1-15.4s12.7,5,12.7,15.9v4.3h13.3v-4.3c0-18.3-10.2-28.3-26.1-28.3s-15.8,2.9-20.4,8.4c-4.6-5.5-11.5-8.4-20.4-8.4s-15.2,2.8-19.7,8.1c-1.9-2.3-4.3-4.1-7-5.4l-7.6,10.5c4.8,1.7,7.6,6,8.3,13.3,0,.6,0,1.2,0,1.9v52.3h13.3v-52.3c0-10.8,5-15.9,12.7-15.9s13.3,4.8,14.1,15.4c0,0,0,13.4,0,13.4v3.4Z"/>
        <path class="cls-2" d="M69.6,75.4s0,10,0,10c-.8,10.6,5.2,27.8,26.9,27.8s26.1-9.9,26.1-28.3v-1.3h-13.3v1.3c0,10.8-5,15.9-12.7,15.9s-13.3-4.8-14.1-15.4c0,0,0-10,0-10v-3.4s0-13.4,0-13.4c.8-10.6,5.4-15.4,14.1-15.4s12.7,5,12.7,15.9v4.3h13.3v-4.3c0-18.3-10.2-28.3-26.1-28.3s-15.8,2.9-20.4,8.4c-4.6-5.5-11.5-8.4-20.4-8.4s-15.2,2.8-19.7,8.1c-1.9-2.3-4.3-4.1-7-5.4l-7.6,10.5c4.8,1.7,7.6,6,8.3,13.3,0,.6,0,1.2,0,1.9v52.3h13.3v-52.3c0-10.8,5-15.9,12.7-15.9s13.3,4.8,14.1,15.4c0,0,0,13.4,0,13.4v3.4Z"/>
        <path class="cls-2" d="M69.5,75.3s0,10,0,10c-.8,10.6,5.2,27.8,26.9,27.8s26.1-9.9,26.1-28.3v-1.3h-13.3v1.3c0,10.8-5,15.9-12.7,15.9s-13.3-4.8-14.1-15.4c0,0,0-10,0-10v-3.4s0-13.4,0-13.4c.8-10.6,5.4-15.4,14.1-15.4s12.7,5,12.7,15.9v4.3h13.3v-4.3c0-18.3-10.2-28.3-26.1-28.3s-15.8,2.9-20.4,8.4c-4.6-5.5-11.5-8.4-20.4-8.4s-15.2,2.8-19.7,8.1c-1.9-2.3-4.3-4.1-7-5.4l-7.6,10.5c4.8,1.7,7.6,6,8.3,13.3,0,.6,0,1.2,0,1.9v52.3h13.3v-52.3c0-10.8,5-15.9,12.7-15.9s13.3,4.8,14.1,15.4c0,0,0,13.4,0,13.4v3.4Z"/>
        <path class="cls-2" d="M69.5,75.2s0,10,0,10c-.8,10.6,5.2,27.8,26.9,27.8s26.1-9.9,26.1-28.3v-1.3h-13.3v1.3c0,10.8-5,15.9-12.7,15.9s-13.3-4.8-14.1-15.4c0,0,0-10,0-10v-3.4s0-13.4,0-13.4c.8-10.6,5.4-15.4,14.1-15.4s12.7,5,12.7,15.9v4.3h13.3v-4.3c0-18.3-10.2-28.3-26.1-28.3s-15.8,2.9-20.4,8.4c-4.6-5.5-11.5-8.4-20.4-8.4s-15.2,2.8-19.7,8.1c-1.9-2.3-4.3-4.1-7-5.4l-7.6,10.5c4.8,1.7,7.6,6,8.3,13.3,0,.6,0,1.2,0,1.9v52.3h13.3v-52.3c0-10.8,5-15.9,12.7-15.9s13.3,4.8,14.1,15.4c0,0,0,13.4,0,13.4v3.4Z"/>
        <path class="cls-2" d="M69.4,75.1s0,10,0,10c-.8,10.6,5.2,27.8,26.9,27.8s26.1-9.9,26.1-28.3v-1.3h-13.3v1.3c0,10.8-5,15.9-12.7,15.9s-13.3-4.8-14.1-15.4c0,0,0-10,0-10v-3.4s0-13.4,0-13.4c.8-10.6,5.4-15.4,14.1-15.4s12.7,5,12.7,15.9v4.3h13.3v-4.3c0-18.3-10.2-28.3-26.1-28.3s-15.8,2.9-20.4,8.4c-4.6-5.5-11.5-8.4-20.4-8.4s-15.2,2.8-19.7,8.1c-1.9-2.3-4.3-4.1-7-5.4l-7.6,10.5c4.8,1.7,7.6,6,8.3,13.3,0,.6,0,1.2,0,1.9v52.3h13.3v-52.3c0-10.8,5-15.9,12.7-15.9s13.3,4.8,14.1,15.4c0,0,0,13.4,0,13.4v3.4Z"/>
        <path class="cls-2" d="M69.3,75.1s0,10,0,10c-.8,10.6,5.2,27.8,26.9,27.8s26.1-9.9,26.1-28.3v-1.3h-13.3v1.3c0,10.8-5,15.9-12.7,15.9s-13.3-4.8-14.1-15.4c0,0,0-10,0-10v-3.4s0-13.4,0-13.4c.8-10.6,5.4-15.4,14.1-15.4s12.7,5,12.7,15.9v4.3h13.3v-4.3c0-18.3-10.2-28.3-26.1-28.3s-15.8,2.9-20.4,8.4c-4.6-5.5-11.5-8.4-20.4-8.4s-15.2,2.8-19.7,8.1c-1.9-2.3-4.3-4.1-7-5.4l-7.6,10.5c4.8,1.7,7.6,6,8.3,13.3,0,.6,0,1.2,0,1.9v52.3h13.3v-52.3c0-10.8,5-15.9,12.7-15.9s13.3,4.8,14.1,15.4c0,0,0,13.4,0,13.4v3.4Z"/>
        <path class="cls-2" d="M69.3,75s0,10,0,10c-.8,10.6,5.2,27.8,26.9,27.8s26.1-9.9,26.1-28.3v-1.3h-13.3v1.3c0,10.8-5,15.9-12.7,15.9s-13.3-4.8-14.1-15.4c0,0,0-10,0-10v-3.4s0-13.4,0-13.4c.8-10.6,5.4-15.4,14.1-15.4s12.7,5,12.7,15.9v4.3h13.3v-4.3c0-18.3-10.2-28.3-26.1-28.3s-15.8,2.9-20.4,8.4c-4.6-5.5-11.5-8.4-20.4-8.4s-15.2,2.8-19.7,8.1c-1.9-2.3-4.3-4.1-7-5.4l-7.6,10.5c4.8,1.7,7.6,6,8.3,13.3,0,.6,0,1.2,0,1.9v52.3h13.3v-52.3c0-10.8,5-15.9,12.7-15.9s13.3,4.8,14.1,15.4c0,0,0,13.4,0,13.4v3.4Z"/>
        <path class="cls-2" d="M69.2,74.9s0,10,0,10c-.8,10.6,5.2,27.8,26.9,27.8s26.1-9.9,26.1-28.3v-1.3h-13.3v1.3c0,10.8-5,15.9-12.7,15.9s-13.3-4.8-14.1-15.4c0,0,0-10,0-10v-3.4s0-13.4,0-13.4c.8-10.6,5.4-15.4,14.1-15.4s12.7,5,12.7,15.9v4.3h13.3v-4.3c0-18.3-10.2-28.3-26.1-28.3s-15.8,2.9-20.4,8.4c-4.6-5.5-11.5-8.4-20.4-8.4s-15.2,2.8-19.7,8.1c-1.9-2.3-4.3-4.1-7-5.4l-7.6,10.5c4.8,1.7,7.6,6,8.3,13.3,0,.6,0,1.2,0,1.9v52.3h13.3v-52.3c0-10.8,5-15.9,12.7-15.9s13.3,4.8,14.1,15.4c0,0,0,13.4,0,13.4v3.4Z"/>
        <path class="cls-2" d="M69.1,74.9s0,10,0,10c-.8,10.6,5.2,27.8,26.9,27.8s26.1-9.9,26.1-28.3v-1.3h-13.3v1.3c0,10.8-5,15.9-12.7,15.9s-13.3-4.8-14.1-15.4c0,0,0-10,0-10v-3.4s0-13.4,0-13.4c.8-10.6,5.4-15.4,14.1-15.4s12.7,5,12.7,15.9v4.3h13.3v-4.3c0-18.3-10.2-28.3-26.1-28.3s-15.8,2.9-20.4,8.4c-4.6-5.5-11.5-8.4-20.4-8.4s-15.2,2.8-19.7,8.1c-1.9-2.3-4.3-4.1-7-5.4l-7.6,10.5c4.8,1.7,7.6,6,8.3,13.3,0,.6,0,1.2,0,1.9v52.3h13.3v-52.3c0-10.8,5-15.9,12.7-15.9s13.3,4.8,14.1,15.4c0,0,0,13.4,0,13.4v3.4Z"/>
        <path class="cls-2" d="M69.1,74.8s0,10,0,10c-.8,10.6,5.2,27.8,26.9,27.8s26.1-9.9,26.1-28.3v-1.3h-13.3v1.3c0,10.8-5,15.9-12.7,15.9s-13.3-4.8-14.1-15.4c0,0,0-10,0-10v-3.4s0-13.4,0-13.4c.8-10.6,5.4-15.4,14.1-15.4s12.7,5,12.7,15.9v4.3h13.3v-4.3c0-18.3-10.2-28.3-26.1-28.3s-15.8,2.9-20.4,8.4c-4.6-5.5-11.5-8.4-20.4-8.4s-15.2,2.8-19.7,8.1c-1.9-2.3-4.3-4.1-7-5.4l-7.6,10.5c4.8,1.7,7.6,6,8.3,13.3,0,.6,0,1.2,0,1.9v52.3h13.3v-52.3c0-10.8,5-15.9,12.7-15.9s13.3,4.8,14.1,15.4c0,0,0,13.4,0,13.4v3.4Z"/>
        <path class="cls-2" d="M69,74.7s0,10,0,10c-.8,10.6,5.2,27.8,26.9,27.8s26.1-9.9,26.1-28.3v-1.3h-13.3v1.3c0,10.8-5,15.9-12.7,15.9s-13.3-4.8-14.1-15.4c0,0,0-10,0-10v-3.4s0-13.4,0-13.4c.8-10.6,5.4-15.4,14.1-15.4s12.7,5,12.7,15.9v4.3h13.3v-4.3c0-18.3-10.2-28.3-26.1-28.3s-15.8,2.9-20.4,8.4c-4.6-5.5-11.5-8.4-20.4-8.4s-15.2,2.8-19.7,8.1c-1.9-2.3-4.3-4.1-7-5.4l-7.6,10.5c4.8,1.7,7.6,6,8.3,13.3,0,.6,0,1.2,0,1.9v52.3h13.3v-52.3c0-10.8,5-15.9,12.7-15.9s13.3,4.8,14.1,15.4c0,0,0,13.4,0,13.4v3.4Z"/>
        <path class="cls-2" d="M68.9,74.6s0,10,0,10c-.8,10.6,5.2,27.8,26.9,27.8s26.1-9.9,26.1-28.3v-1.3h-13.3v1.3c0,10.8-5,15.9-12.7,15.9s-13.3-4.8-14.1-15.4c0,0,0-10,0-10v-3.4s0-13.4,0-13.4c.8-10.6,5.4-15.4,14.1-15.4s12.7,5,12.7,15.9v4.3h13.3v-4.3c0-18.3-10.2-28.3-26.1-28.3s-15.8,2.9-20.4,8.4c-4.6-5.5-11.5-8.4-20.4-8.4s-15.2,2.8-19.7,8.1c-1.9-2.3-4.3-4.1-7-5.4l-7.6,10.5c4.8,1.7,7.6,6,8.3,13.3,0,.6,0,1.2,0,1.9v52.3h13.3v-52.3c0-10.8,5-15.9,12.7-15.9s13.3,4.8,14.1,15.4c0,0,0,13.4,0,13.4v3.4Z"/>
        <path class="cls-2" d="M68.8,74.6s0,10,0,10c-.8,10.6,5.2,27.8,26.9,27.8s26.1-9.9,26.1-28.3v-1.3h-13.3v1.3c0,10.8-5,15.9-12.7,15.9s-13.3-4.8-14.1-15.4c0,0,0-10,0-10v-3.4s0-13.4,0-13.4c.8-10.6,5.4-15.4,14.1-15.4s12.7,5,12.7,15.9v4.3h13.3v-4.3c0-18.3-10.2-28.3-26.1-28.3s-15.8,2.9-20.4,8.4c-4.6-5.5-11.5-8.4-20.4-8.4s-15.2,2.8-19.7,8.1c-1.9-2.3-4.3-4.1-7-5.4l-7.6,10.5c4.8,1.7,7.6,6,8.3,13.3,0,.6,0,1.2,0,1.9v52.3h13.3v-52.3c0-10.8,5-15.9,12.7-15.9s13.3,4.8,14.1,15.4c0,0,0,13.4,0,13.4v3.4Z"/>
        <path class="cls-2" d="M68.8,74.5s0,10,0,10c-.8,10.6,5.2,27.8,26.9,27.8s26.1-9.9,26.1-28.3v-1.3h-13.3v1.3c0,10.8-5,15.9-12.7,15.9s-13.3-4.8-14.1-15.4c0,0,0-10,0-10v-3.4s0-13.4,0-13.4c.8-10.6,5.4-15.4,14.1-15.4s12.7,5,12.7,15.9v4.3h13.3v-4.3c0-18.3-10.2-28.3-26.1-28.3s-15.8,2.9-20.4,8.4c-4.6-5.5-11.5-8.4-20.4-8.4s-15.2,2.8-19.7,8.1c-1.9-2.3-4.3-4.1-7-5.4l-7.6,10.5c4.8,1.7,7.6,6,8.3,13.3,0,.6,0,1.2,0,1.9v52.3h13.3v-52.3c0-10.8,5-15.9,12.7-15.9s13.3,4.8,14.1,15.4c0,0,0,13.4,0,13.4v3.4Z"/>
        <path class="cls-2" d="M68.7,74.4s0,10,0,10c-.8,10.6,5.2,27.8,26.9,27.8s26.1-9.9,26.1-28.3v-1.3h-13.3v1.3c0,10.8-5,15.9-12.7,15.9s-13.3-4.8-14.1-15.4c0,0,0-10,0-10v-3.4s0-13.4,0-13.4c.8-10.6,5.4-15.4,14.1-15.4s12.7,5,12.7,15.9v4.3h13.3v-4.3c0-18.3-10.2-28.3-26.1-28.3s-15.8,2.9-20.4,8.4c-4.6-5.5-11.5-8.4-20.4-8.4s-15.2,2.8-19.7,8.1c-1.9-2.3-4.3-4.1-7-5.4l-7.6,10.5c4.8,1.7,7.6,6,8.3,13.3,0,.6,0,1.2,0,1.9v52.3h13.3v-52.3c0-10.8,5-15.9,12.7-15.9s13.3,4.8,14.1,15.4c0,0,0,13.4,0,13.4v3.4Z"/>
        <path class="cls-2" d="M68.6,74.4s0,10,0,10c-.8,10.6,5.2,27.8,26.9,27.8s26.1-9.9,26.1-28.3v-1.3h-13.3v1.3c0,10.8-5,15.9-12.7,15.9s-13.3-4.8-14.1-15.4c0,0,0-10,0-10v-3.4s0-13.4,0-13.4c.8-10.6,5.4-15.4,14.1-15.4s12.7,5,12.7,15.9v4.3h13.3v-4.3c0-18.3-10.2-28.3-26.1-28.3s-15.8,2.9-20.4,8.4c-4.6-5.5-11.5-8.4-20.4-8.4s-15.2,2.8-19.7,8.1c-1.9-2.3-4.3-4.1-7-5.4l-7.6,10.5c4.8,1.7,7.6,6,8.3,13.3,0,.6,0,1.2,0,1.9v52.3h13.3v-52.3c0-10.8,5-15.9,12.7-15.9s13.3,4.8,14.1,15.4c0,0,0,13.4,0,13.4v3.4Z"/>
        <path class="cls-2" d="M68.6,74.3s0,10,0,10c-.8,10.6,5.2,27.8,26.9,27.8s26.1-9.9,26.1-28.3v-1.3h-13.3v1.3c0,10.8-5,15.9-12.7,15.9s-13.3-4.8-14.1-15.4c0,0,0-10,0-10v-3.4s0-13.4,0-13.4c.8-10.6,5.4-15.4,14.1-15.4s12.7,5,12.7,15.9v4.3h13.3v-4.3c0-18.3-10.2-28.3-26.1-28.3s-15.8,2.9-20.4,8.4c-4.6-5.5-11.5-8.4-20.4-8.4s-15.2,2.8-19.7,8.1c-1.9-2.3-4.3-4.1-7-5.4l-7.6,10.5c4.8,1.7,7.6,6,8.3,13.3,0,.6,0,1.2,0,1.9v52.3h13.3v-52.3c0-10.8,5-15.9,12.7-15.9s13.3,4.8,14.1,15.4c0,0,0,13.4,0,13.4v3.4Z"/>
        <path class="cls-2" d="M68.5,74.2s0,10,0,10c-.8,10.6,5.2,27.8,26.9,27.8s26.1-9.9,26.1-28.3v-1.3h-13.3v1.3c0,10.8-5,15.9-12.7,15.9s-13.3-4.8-14.1-15.4c0,0,0-10,0-10v-3.4s0-13.4,0-13.4c.8-10.6,5.4-15.4,14.1-15.4s12.7,5,12.7,15.9v4.3h13.3v-4.3c0-18.3-10.2-28.3-26.1-28.3s-15.8,2.9-20.4,8.4c-4.6-5.5-11.5-8.4-20.4-8.4s-15.2,2.8-19.7,8.1c-1.9-2.3-4.3-4.1-7-5.4l-7.6,10.5c4.8,1.7,7.6,6,8.3,13.3,0,.6,0,1.2,0,1.9v52.3h13.3v-52.3c0-10.8,5-15.9,12.7-15.9s13.3,4.8,14.1,15.4c0,0,0,13.4,0,13.4v3.4Z"/>
        <path class="cls-2" d="M68.4,74.2s0,10,0,10c-.8,10.6,5.2,27.8,26.9,27.8s26.1-9.9,26.1-28.3v-1.3h-13.3v1.3c0,10.8-5,15.9-12.7,15.9s-13.3-4.8-14.1-15.4c0,0,0-10,0-10v-3.4s0-13.4,0-13.4c.8-10.6,5.4-15.4,14.1-15.4s12.7,5,12.7,15.9v4.3h13.3v-4.3c0-18.3-10.2-28.3-26.1-28.3s-15.8,2.9-20.4,8.4c-4.6-5.5-11.5-8.4-20.4-8.4s-15.2,2.8-19.7,8.1c-1.9-2.3-4.3-4.1-7-5.4l-7.6,10.5c4.8,1.7,7.6,6,8.3,13.3,0,.6,0,1.2,0,1.9v52.3h13.3v-52.3c0-10.8,5-15.9,12.7-15.9s13.3,4.8,14.1,15.4c0,0,0,13.4,0,13.4v3.4Z"/>
        <path class="cls-2" d="M68.3,74.1s0,10,0,10c-.8,10.6,5.2,27.8,26.9,27.8s26.1-9.9,26.1-28.3v-1.3h-13.3v1.3c0,10.8-5,15.9-12.7,15.9s-13.3-4.8-14.1-15.4c0,0,0-10,0-10v-3.4s0-13.4,0-13.4c.8-10.6,5.4-15.4,14.1-15.4s12.7,5,12.7,15.9v4.3h13.3v-4.3c0-18.3-10.2-28.3-26.1-28.3s-15.8,2.9-20.4,8.4c-4.6-5.5-11.5-8.4-20.4-8.4s-15.2,2.8-19.7,8.1c-1.9-2.3-4.3-4.1-7-5.4l-7.6,10.5c4.8,1.7,7.6,6,8.3,13.3,0,.6,0,1.2,0,1.9v52.3h13.3v-52.3c0-10.8,5-15.9,12.7-15.9s13.3,4.8,14.1,15.4c0,0,0,13.4,0,13.4v3.4Z"/>
        <path class="cls-2" d="M68.3,74s0,10,0,10c-.8,10.6,5.2,27.8,26.9,27.8s26.1-9.9,26.1-28.3v-1.3h-13.3v1.3c0,10.8-5,15.9-12.7,15.9s-13.3-4.8-14.1-15.4c0,0,0-10,0-10v-3.4s0-13.4,0-13.4c.8-10.6,5.4-15.4,14.1-15.4s12.7,5,12.7,15.9v4.3h13.3v-4.3c0-18.3-10.2-28.3-26.1-28.3s-15.8,2.9-20.4,8.4c-4.6-5.5-11.5-8.4-20.4-8.4s-15.2,2.8-19.7,8.1c-1.9-2.3-4.3-4.1-7-5.4l-7.6,10.5c4.8,1.7,7.6,6,8.3,13.3,0,.6,0,1.2,0,1.9v52.3h13.3v-52.3c0-10.8,5-15.9,12.7-15.9s13.3,4.8,14.1,15.4c0,0,0,13.4,0,13.4v3.4Z"/>
        <path class="cls-2" d="M68.2,73.9s0,10,0,10c-.8,10.6,5.2,27.8,26.9,27.8s26.1-9.9,26.1-28.3v-1.3h-13.3v1.3c0,10.8-5,15.9-12.7,15.9s-13.3-4.8-14.1-15.4c0,0,0-10,0-10v-3.4s0-13.4,0-13.4c.8-10.6,5.4-15.4,14.1-15.4s12.7,5,12.7,15.9v4.3h13.3v-4.3c0-18.3-10.2-28.3-26.1-28.3s-15.8,2.9-20.4,8.4c-4.6-5.5-11.5-8.4-20.4-8.4s-15.2,2.8-19.7,8.1c-1.9-2.3-4.3-4.1-7-5.4l-7.6,10.5c4.8,1.7,7.6,6,8.3,13.3,0,.6,0,1.2,0,1.9v52.3h13.3v-52.3c0-10.8,5-15.9,12.7-15.9s13.3,4.8,14.1,15.4c0,0,0,13.4,0,13.4v3.4Z"/>
        <path class="cls-2" d="M68.1,73.9s0,10,0,10c-.8,10.6,5.2,27.8,26.9,27.8s26.1-9.9,26.1-28.3v-1.3h-13.3v1.3c0,10.8-5,15.9-12.7,15.9s-13.3-4.8-14.1-15.4c0,0,0-10,0-10v-3.4s0-13.4,0-13.4c.8-10.6,5.4-15.4,14.1-15.4s12.7,5,12.7,15.9v4.3h13.3v-4.3c0-18.3-10.2-28.3-26.1-28.3s-15.8,2.9-20.4,8.4c-4.6-5.5-11.5-8.4-20.4-8.4s-15.2,2.8-19.7,8.1c-1.9-2.3-4.3-4.1-7-5.4l-7.6,10.5c4.8,1.7,7.6,6,8.3,13.3,0,.6,0,1.2,0,1.9v52.3h13.3v-52.3c0-10.8,5-15.9,12.7-15.9s13.3,4.8,14.1,15.4c0,0,0,13.4,0,13.4v3.4Z"/>
        <path class="cls-2" d="M68.1,73.8s0,10,0,10c-.8,10.6,5.2,27.8,26.9,27.8s26.1-9.9,26.1-28.3v-1.3h-13.3v1.3c0,10.8-5,15.9-12.7,15.9s-13.3-4.8-14.1-15.4c0,0,0-10,0-10v-3.4s0-13.4,0-13.4c.8-10.6,5.4-15.4,14.1-15.4s12.7,5,12.7,15.9v4.3h13.3v-4.3c0-18.3-10.2-28.3-26.1-28.3s-15.8,2.9-20.4,8.4c-4.6-5.5-11.5-8.4-20.4-8.4s-15.2,2.8-19.7,8.1c-1.9-2.3-4.3-4.1-7-5.4l-7.6,10.5c4.8,1.7,7.6,6,8.3,13.3,0,.6,0,1.2,0,1.9v52.3h13.3v-52.3c0-10.8,5-15.9,12.7-15.9s13.3,4.8,14.1,15.4c0,0,0,13.4,0,13.4v3.4Z"/>
        <path class="cls-2" d="M68,73.7s0,10,0,10c-.8,10.6,5.2,27.8,26.9,27.8s26.1-9.9,26.1-28.3v-1.3h-13.3v1.3c0,10.8-5,15.9-12.7,15.9s-13.3-4.8-14.1-15.4c0,0,0-10,0-10v-3.4s0-13.4,0-13.4c.8-10.6,5.4-15.4,14.1-15.4s12.7,5,12.7,15.9v4.3h13.3v-4.3c0-18.3-10.2-28.3-26.1-28.3s-15.8,2.9-20.4,8.4c-4.6-5.5-11.5-8.4-20.4-8.4s-15.2,2.8-19.7,8.1c-1.9-2.3-4.3-4.1-7-5.4l-7.6,10.5c4.8,1.7,7.6,6,8.3,13.3,0,.6,0,1.2,0,1.9v52.3h13.3v-52.3c0-10.8,5-15.9,12.7-15.9s13.3,4.8,14.1,15.4c0,0,0,13.4,0,13.4v3.4Z"/>
        <path class="cls-2" d="M67.9,73.7s0,10,0,10c-.8,10.6,5.2,27.8,26.9,27.8s26.1-9.9,26.1-28.3v-1.3h-13.3v1.3c0,10.8-5,15.9-12.7,15.9s-13.3-4.8-14.1-15.4c0,0,0-10,0-10v-3.4s0-13.4,0-13.4c.8-10.6,5.4-15.4,14.1-15.4s12.7,5,12.7,15.9v4.3h13.3v-4.3c0-18.3-10.2-28.3-26.1-28.3s-15.8,2.9-20.4,8.4c-4.6-5.5-11.5-8.4-20.4-8.4s-15.2,2.8-19.7,8.1c-1.9-2.3-4.3-4.1-7-5.4l-7.6,10.5c4.8,1.7,7.6,6,8.3,13.3,0,.6,0,1.2,0,1.9v52.3h13.3v-52.3c0-10.8,5-15.9,12.7-15.9s13.3,4.8,14.1,15.4c0,0,0,13.4,0,13.4v3.4Z"/>
        <path class="cls-2" d="M67.8,73.6s0,10,0,10c-.8,10.6,5.2,27.8,26.9,27.8s26.1-9.9,26.1-28.3v-1.3h-13.3v1.3c0,10.8-5,15.9-12.7,15.9s-13.3-4.8-14.1-15.4c0,0,0-10,0-10v-3.4s0-13.4,0-13.4c.8-10.6,5.4-15.4,14.1-15.4s12.7,5,12.7,15.9v4.3h13.3v-4.3c0-18.3-10.2-28.3-26.1-28.3s-15.8,2.9-20.4,8.4c-4.6-5.5-11.5-8.4-20.4-8.4s-15.2,2.8-19.7,8.1c-1.9-2.3-4.3-4.1-7-5.4l-7.6,10.5c4.8,1.7,7.6,6,8.3,13.3,0,.6,0,1.2,0,1.9v52.3h13.3v-52.3c0-10.8,5-15.9,12.7-15.9s13.3,4.8,14.1,15.4c0,0,0,13.4,0,13.4v3.4Z"/>
        <path class="cls-2" d="M67.8,73.5s0,10,0,10c-.8,10.6,5.2,27.8,26.9,27.8s26.1-9.9,26.1-28.3v-1.3h-13.3v1.3c0,10.8-5,15.9-12.7,15.9s-13.3-4.8-14.1-15.4c0,0,0-10,0-10v-3.4s0-13.4,0-13.4c.8-10.6,5.4-15.4,14.1-15.4s12.7,5,12.7,15.9v4.3h13.3v-4.3c0-18.3-10.2-28.3-26.1-28.3s-15.8,2.9-20.4,8.4c-4.6-5.5-11.5-8.4-20.4-8.4s-15.2,2.8-19.7,8.1c-1.9-2.3-4.3-4.1-7-5.4l-7.6,10.5c4.8,1.7,7.6,6,8.3,13.3,0,.6,0,1.2,0,1.9v52.3h13.3v-52.3c0-10.8,5-15.9,12.7-15.9s13.3,4.8,14.1,15.4c0,0,0,13.4,0,13.4v3.4Z"/>
        <path class="cls-2" d="M67.7,73.4s0,10,0,10c-.8,10.6,5.2,27.8,26.9,27.8s26.1-9.9,26.1-28.3v-1.3h-13.3v1.3c0,10.8-5,15.9-12.7,15.9s-13.3-4.8-14.1-15.4c0,0,0-10,0-10v-3.4s0-13.4,0-13.4c.8-10.6,5.4-15.4,14.1-15.4s12.7,5,12.7,15.9v4.3h13.3v-4.3c0-18.3-10.2-28.3-26.1-28.3s-15.8,2.9-20.4,8.4c-4.6-5.5-11.5-8.4-20.4-8.4s-15.2,2.8-19.7,8.1c-1.9-2.3-4.3-4.1-7-5.4l-7.6,10.5c4.8,1.7,7.6,6,8.3,13.3,0,.6,0,1.2,0,1.9v52.3h13.3v-52.3c0-10.8,5-15.9,12.7-15.9s13.3,4.8,14.1,15.4c0,0,0,13.4,0,13.4v3.4Z"/>
        <path class="cls-2" d="M67.6,73.4s0,10,0,10c-.8,10.6,5.2,27.8,26.9,27.8s26.1-9.9,26.1-28.3v-1.3h-13.3v1.3c0,10.8-5,15.9-12.7,15.9s-13.3-4.8-14.1-15.4c0,0,0-10,0-10v-3.4s0-13.4,0-13.4c.8-10.6,5.4-15.4,14.1-15.4s12.7,5,12.7,15.9v4.3h13.3v-4.3c0-18.3-10.2-28.3-26.1-28.3s-15.8,2.9-20.4,8.4c-4.6-5.5-11.5-8.4-20.4-8.4s-15.2,2.8-19.7,8.1c-1.9-2.3-4.3-4.1-7-5.4l-7.6,10.5c4.8,1.7,7.6,6,8.3,13.3,0,.6,0,1.2,0,1.9v52.3h13.3v-52.3c0-10.8,5-15.9,12.7-15.9s13.3,4.8,14.1,15.4c0,0,0,13.4,0,13.4v3.4Z"/>
        <path class="cls-2" d="M67.6,73.3s0,10,0,10c-.8,10.6,5.2,27.8,26.9,27.8s26.1-9.9,26.1-28.3v-1.3h-13.3v1.3c0,10.8-5,15.9-12.7,15.9s-13.3-4.8-14.1-15.4c0,0,0-10,0-10v-3.4s0-13.4,0-13.4c.8-10.6,5.4-15.4,14.1-15.4s12.7,5,12.7,15.9v4.3h13.3v-4.3c0-18.3-10.2-28.3-26.1-28.3s-15.8,2.9-20.4,8.4c-4.6-5.5-11.5-8.4-20.4-8.4s-15.2,2.8-19.7,8.1c-1.9-2.3-4.3-4.1-7-5.4l-7.6,10.5c4.8,1.7,7.6,6,8.3,13.3,0,.6,0,1.2,0,1.9v52.3h13.3v-52.3c0-10.8,5-15.9,12.7-15.9s13.3,4.8,14.1,15.4c0,0,0,13.4,0,13.4v3.4Z"/>
        <path class="cls-2" d="M67.5,73.2s0,10,0,10c-.8,10.6,5.2,27.8,26.9,27.8s26.1-9.9,26.1-28.3v-1.3h-13.3v1.3c0,10.8-5,15.9-12.7,15.9s-13.3-4.8-14.1-15.4c0,0,0-10,0-10v-3.4s0-13.4,0-13.4c.8-10.6,5.4-15.4,14.1-15.4s12.7,5,12.7,15.9v4.3h13.3v-4.3c0-18.3-10.2-28.3-26.1-28.3s-15.8,2.9-20.4,8.4c-4.6-5.5-11.5-8.4-20.4-8.4s-15.2,2.8-19.7,8.1c-1.9-2.3-4.3-4.1-7-5.4l-7.6,10.5c4.8,1.7,7.6,6,8.3,13.3,0,.6,0,1.2,0,1.9v52.3h13.3v-52.3c0-10.8,5-15.9,12.7-15.9s13.3,4.8,14.1,15.4c0,0,0,13.4,0,13.4v3.4Z"/>
        <path class="cls-2" d="M67.4,73.2s0,10,0,10c-.8,10.6,5.2,27.8,26.9,27.8s26.1-9.9,26.1-28.3v-1.3h-13.3v1.3c0,10.8-5,15.9-12.7,15.9s-13.3-4.8-14.1-15.4c0,0,0-10,0-10v-3.4s0-13.4,0-13.4c.8-10.6,5.4-15.4,14.1-15.4s12.7,5,12.7,15.9v4.3h13.3v-4.3c0-18.3-10.2-28.3-26.1-28.3s-15.8,2.9-20.4,8.4c-4.6-5.5-11.5-8.4-20.4-8.4s-15.2,2.8-19.7,8.1c-1.9-2.3-4.3-4.1-7-5.4l-7.6,10.5c4.8,1.7,7.6,6,8.3,13.3,0,.6,0,1.2,0,1.9v52.3h13.3v-52.3c0-10.8,5-15.9,12.7-15.9s13.3,4.8,14.1,15.4c0,0,0,13.4,0,13.4v3.4Z"/>
        <path class="cls-2" d="M67.3,73.1s0,10,0,10c-.8,10.6,5.2,27.8,26.9,27.8s26.1-9.9,26.1-28.3v-1.3h-13.3v1.3c0,10.8-5,15.9-12.7,15.9s-13.3-4.8-14.1-15.4c0,0,0-10,0-10v-3.4s0-13.4,0-13.4c.8-10.6,5.4-15.4,14.1-15.4s12.7,5,12.7,15.9v4.3h13.3v-4.3c0-18.3-10.2-28.3-26.1-28.3s-15.8,2.9-20.4,8.4c-4.6-5.5-11.5-8.4-20.4-8.4s-15.2,2.8-19.7,8.1c-1.9-2.3-4.3-4.1-7-5.4l-7.6,10.5c4.8,1.7,7.6,6,8.3,13.3,0,.6,0,1.2,0,1.9v52.3h13.3v-52.3c0-10.8,5-15.9,12.7-15.9s13.3,4.8,14.1,15.4c0,0,0,13.4,0,13.4v3.4Z"/>
        <path class="cls-2" d="M67.3,73s0,10,0,10c-.8,10.6,5.2,27.8,26.9,27.8s26.1-9.9,26.1-28.3v-1.3h-13.3v1.3c0,10.8-5,15.9-12.7,15.9s-13.3-4.8-14.1-15.4c0,0,0-10,0-10v-3.4s0-13.4,0-13.4c.8-10.6,5.4-15.4,14.1-15.4s12.7,5,12.7,15.9v4.3h13.3v-4.3c0-18.3-10.2-28.3-26.1-28.3s-15.8,2.9-20.4,8.4c-4.6-5.5-11.5-8.4-20.4-8.4s-15.2,2.8-19.7,8.1c-1.9-2.3-4.3-4.1-7-5.4l-7.6,10.5c4.8,1.7,7.6,6,8.3,13.3,0,.6,0,1.2,0,1.9v52.3h13.3v-52.3c0-10.8,5-15.9,12.7-15.9s13.3,4.8,14.1,15.4c0,0,0,13.4,0,13.4v3.4Z"/>
        <path class="cls-2" d="M67.2,72.9s0,10,0,10c-.8,10.6,5.2,27.8,26.9,27.8s26.1-9.9,26.1-28.3v-1.3h-13.3v1.3c0,10.8-5,15.9-12.7,15.9s-13.3-4.8-14.1-15.4c0,0,0-10,0-10v-3.4s0-13.4,0-13.4c.8-10.6,5.4-15.4,14.1-15.4s12.7,5,12.7,15.9v4.3h13.3v-4.3c0-18.3-10.2-28.3-26.1-28.3s-15.8,2.9-20.4,8.4c-4.6-5.5-11.5-8.4-20.4-8.4s-15.2,2.8-19.7,8.1c-1.9-2.3-4.3-4.1-7-5.4l-7.6,10.5c4.8,1.7,7.6,6,8.3,13.3,0,.6,0,1.2,0,1.9v52.3h13.3v-52.3c0-10.8,5-15.9,12.7-15.9s13.3,4.8,14.1,15.4c0,0,0,13.4,0,13.4v3.4Z"/>
        <path class="cls-2" d="M67.1,72.9s0,10,0,10c-.8,10.6,5.2,27.8,26.9,27.8s26.1-9.9,26.1-28.3v-1.3h-13.3v1.3c0,10.8-5,15.9-12.7,15.9s-13.3-4.8-14.1-15.4c0,0,0-10,0-10v-3.4s0-13.4,0-13.4c.8-10.6,5.4-15.4,14.1-15.4s12.7,5,12.7,15.9v4.3h13.3v-4.3c0-18.3-10.2-28.3-26.1-28.3s-15.8,2.9-20.4,8.4c-4.6-5.5-11.5-8.4-20.4-8.4s-15.2,2.8-19.7,8.1c-1.9-2.3-4.3-4.1-7-5.4l-7.6,10.5c4.8,1.7,7.6,6,8.3,13.3,0,.6,0,1.2,0,1.9v52.3h13.3v-52.3c0-10.8,5-15.9,12.7-15.9s13.3,4.8,14.1,15.4c0,0,0,13.4,0,13.4v3.4Z"/>
        <path class="cls-2" d="M67.1,72.8s0,10,0,10c-.8,10.6,5.2,27.8,26.9,27.8s26.1-9.9,26.1-28.3v-1.3h-13.3v1.3c0,10.8-5,15.9-12.7,15.9s-13.3-4.8-14.1-15.4c0,0,0-10,0-10v-3.4s0-13.4,0-13.4c.8-10.6,5.4-15.4,14.1-15.4s12.7,5,12.7,15.9v4.3h13.3v-4.3c0-18.3-10.2-28.3-26.1-28.3s-15.8,2.9-20.4,8.4c-4.6-5.5-11.5-8.4-20.4-8.4s-15.2,2.8-19.7,8.1c-1.9-2.3-4.3-4.1-7-5.4l-7.6,10.5c4.8,1.7,7.6,6,8.3,13.3,0,.6,0,1.2,0,1.9v52.3h13.3v-52.3c0-10.8,5-15.9,12.7-15.9s13.3,4.8,14.1,15.4c0,0,0,13.4,0,13.4v3.4Z"/>
        <path class="cls-2" d="M67,72.7s0,10,0,10c-.8,10.6,5.2,27.8,26.9,27.8s26.1-9.9,26.1-28.3v-1.3h-13.3v1.3c0,10.8-5,15.9-12.7,15.9s-13.3-4.8-14.1-15.4c0,0,0-10,0-10v-3.4s0-13.4,0-13.4c.8-10.6,5.4-15.4,14.1-15.4s12.7,5,12.7,15.9v4.3h13.3v-4.3c0-18.3-10.2-28.3-26.1-28.3s-15.8,2.9-20.4,8.4c-4.6-5.5-11.5-8.4-20.4-8.4s-15.2,2.8-19.7,8.1c-1.9-2.3-4.3-4.1-7-5.4l-7.6,10.5c4.8,1.7,7.6,6,8.3,13.3,0,.6,0,1.2,0,1.9v52.3h13.3v-52.3c0-10.8,5-15.9,12.7-15.9s13.3,4.8,14.1,15.4c0,0,0,13.4,0,13.4v3.4Z"/>
        <path class="cls-2" d="M66.9,72.7s0,10,0,10c-.8,10.6,5.2,27.8,26.9,27.8s26.1-9.9,26.1-28.3v-1.3h-13.3v1.3c0,10.8-5,15.9-12.7,15.9s-13.3-4.8-14.1-15.4c0,0,0-10,0-10v-3.4s0-13.4,0-13.4c.8-10.6,5.4-15.4,14.1-15.4s12.7,5,12.7,15.9v4.3h13.3v-4.3c0-18.3-10.2-28.3-26.1-28.3s-15.8,2.9-20.4,8.4c-4.6-5.5-11.5-8.4-20.4-8.4s-15.2,2.8-19.7,8.1c-1.9-2.3-4.3-4.1-7-5.4l-7.6,10.5c4.8,1.7,7.6,6,8.3,13.3,0,.6,0,1.2,0,1.9v52.3h13.3v-52.3c0-10.8,5-15.9,12.7-15.9s13.3,4.8,14.1,15.4c0,0,0,13.4,0,13.4v3.4Z"/>
        <path class="cls-2" d="M66.9,72.6s0,10,0,10c-.8,10.6,5.2,27.8,26.9,27.8s26.1-9.9,26.1-28.3v-1.3h-13.3v1.3c0,10.8-5,15.9-12.7,15.9s-13.3-4.8-14.1-15.4c0,0,0-10,0-10v-3.4s0-13.4,0-13.4c.8-10.6,5.4-15.4,14.1-15.4s12.7,5,12.7,15.9v4.3h13.3v-4.3c0-18.3-10.2-28.3-26.1-28.3s-15.8,2.9-20.4,8.4c-4.6-5.5-11.5-8.4-20.4-8.4s-15.2,2.8-19.7,8.1c-1.9-2.3-4.3-4.1-7-5.4l-7.6,10.5c4.8,1.7,7.6,6,8.3,13.3,0,.6,0,1.2,0,1.9v52.3h13.3v-52.3c0-10.8,5-15.9,12.7-15.9s13.3,4.8,14.1,15.4c0,0,0,13.4,0,13.4v3.4Z"/>
        <path class="cls-2" d="M66.8,72.5s0,10,0,10c-.8,10.6,5.2,27.8,26.9,27.8s26.1-9.9,26.1-28.3v-1.3h-13.3v1.3c0,10.8-5,15.9-12.7,15.9s-13.3-4.8-14.1-15.4c0,0,0-10,0-10v-3.4s0-13.4,0-13.4c.8-10.6,5.4-15.4,14.1-15.4s12.7,5,12.7,15.9v4.3h13.3v-4.3c0-18.3-10.2-28.3-26.1-28.3s-15.8,2.9-20.4,8.4c-4.6-5.5-11.5-8.4-20.4-8.4s-15.2,2.8-19.7,8.1c-1.9-2.3-4.3-4.1-7-5.4l-7.6,10.5c4.8,1.7,7.6,6,8.3,13.3,0,.6,0,1.2,0,1.9v52.3h13.3v-52.3c0-10.8,5-15.9,12.7-15.9s13.3,4.8,14.1,15.4c0,0,0,13.4,0,13.4v3.4Z"/>
        <path class="cls-2" d="M66.7,72.5s0,10,0,10c-.8,10.6,5.2,27.8,26.9,27.8s26.1-9.9,26.1-28.3v-1.3h-13.3v1.3c0,10.8-5,15.9-12.7,15.9s-13.3-4.8-14.1-15.4c0,0,0-10,0-10v-3.4s0-13.4,0-13.4c.8-10.6,5.4-15.4,14.1-15.4s12.7,5,12.7,15.9v4.3h13.3v-4.3c0-18.3-10.2-28.3-26.1-28.3s-15.8,2.9-20.4,8.4c-4.6-5.5-11.5-8.4-20.4-8.4s-15.2,2.8-19.7,8.1c-1.9-2.3-4.3-4.1-7-5.4l-7.6,10.5c4.8,1.7,7.6,6,8.3,13.3,0,.6,0,1.2,0,1.9v52.3h13.3v-52.3c0-10.8,5-15.9,12.7-15.9s13.3,4.8,14.1,15.4c0,0,0,13.4,0,13.4v3.4Z"/>
        <path class="cls-2" d="M66.6,72.4s0,10,0,10c-.8,10.6,5.2,27.8,26.9,27.8s26.1-9.9,26.1-28.3v-1.3h-13.3v1.3c0,10.8-5,15.9-12.7,15.9s-13.3-4.8-14.1-15.4c0,0,0-10,0-10v-3.4s0-13.4,0-13.4c.8-10.6,5.4-15.4,14.1-15.4s12.7,5,12.7,15.9v4.3h13.3v-4.3c0-18.3-10.2-28.3-26.1-28.3s-15.8,2.9-20.4,8.4c-4.6-5.5-11.5-8.4-20.4-8.4s-15.2,2.8-19.7,8.1c-1.9-2.3-4.3-4.1-7-5.4l-7.6,10.5c4.8,1.7,7.6,6,8.3,13.3,0,.6,0,1.2,0,1.9v52.3h13.3v-52.3c0-10.8,5-15.9,12.7-15.9s13.3,4.8,14.1,15.4c0,0,0,13.4,0,13.4v3.4Z"/>
        <path class="cls-2" d="M66.6,72.3s0,10,0,10c-.8,10.6,5.2,27.8,26.9,27.8s26.1-9.9,26.1-28.3v-1.3h-13.3v1.3c0,10.8-5,15.9-12.7,15.9s-13.3-4.8-14.1-15.4c0,0,0-10,0-10v-3.4s0-13.4,0-13.4c.8-10.6,5.4-15.4,14.1-15.4s12.7,5,12.7,15.9v4.3h13.3v-4.3c0-18.3-10.2-28.3-26.1-28.3s-15.8,2.9-20.4,8.4c-4.6-5.5-11.5-8.4-20.4-8.4s-15.2,2.8-19.7,8.1c-1.9-2.3-4.3-4.1-7-5.4l-7.6,10.5c4.8,1.7,7.6,6,8.3,13.3,0,.6,0,1.2,0,1.9v52.3h13.3v-52.3c0-10.8,5-15.9,12.7-15.9s13.3,4.8,14.1,15.4c0,0,0,13.4,0,13.4v3.4Z"/>
        <path class="cls-2" d="M66.5,72.2s0,10,0,10c-.8,10.6,5.2,27.8,26.9,27.8s26.1-9.9,26.1-28.3v-1.3h-13.3v1.3c0,10.8-5,15.9-12.7,15.9s-13.3-4.8-14.1-15.4c0,0,0-10,0-10v-3.4s0-13.4,0-13.4c.8-10.6,5.4-15.4,14.1-15.4s12.7,5,12.7,15.9v4.3h13.3v-4.3c0-18.3-10.2-28.3-26.1-28.3s-15.8,2.9-20.4,8.4c-4.6-5.5-11.5-8.4-20.4-8.4s-15.2,2.8-19.7,8.1c-1.9-2.3-4.3-4.1-7-5.4l-7.6,10.5c4.8,1.7,7.6,6,8.3,13.3,0,.6,0,1.2,0,1.9v52.3h13.3v-52.3c0-10.8,5-15.9,12.7-15.9s13.3,4.8,14.1,15.4c0,0,0,13.4,0,13.4v3.4Z"/>
        <path class="cls-2" d="M66.4,72.2s0,10,0,10c-.8,10.6,5.2,27.8,26.9,27.8s26.1-9.9,26.1-28.3v-1.3h-13.3v1.3c0,10.8-5,15.9-12.7,15.9s-13.3-4.8-14.1-15.4c0,0,0-10,0-10v-3.4s0-13.4,0-13.4c.8-10.6,5.4-15.4,14.1-15.4s12.7,5,12.7,15.9v4.3h13.3v-4.3c0-18.3-10.2-28.3-26.1-28.3s-15.8,2.9-20.4,8.4c-4.6-5.5-11.5-8.4-20.4-8.4s-15.2,2.8-19.7,8.1c-1.9-2.3-4.3-4.1-7-5.4l-7.6,10.5c4.8,1.7,7.6,6,8.3,13.3,0,.6,0,1.2,0,1.9v52.3h13.3v-52.3c0-10.8,5-15.9,12.7-15.9s13.3,4.8,14.1,15.4c0,0,0,13.4,0,13.4v3.4Z"/>
        <path class="cls-2" d="M66.4,72.1s0,10,0,10c-.8,10.6,5.2,27.8,26.9,27.8s26.1-9.9,26.1-28.3v-1.3h-13.3v1.3c0,10.8-5,15.9-12.7,15.9s-13.3-4.8-14.1-15.4c0,0,0-10,0-10v-3.4s0-13.4,0-13.4c.8-10.6,5.4-15.4,14.1-15.4s12.7,5,12.7,15.9v4.3h13.3v-4.3c0-18.3-10.2-28.3-26.1-28.3s-15.8,2.9-20.4,8.4c-4.6-5.5-11.5-8.4-20.4-8.4s-15.2,2.8-19.7,8.1c-1.9-2.3-4.3-4.1-7-5.4l-7.6,10.5c4.8,1.7,7.6,6,8.3,13.3,0,.6,0,1.2,0,1.9v52.3h13.3v-52.3c0-10.8,5-15.9,12.7-15.9s13.3,4.8,14.1,15.4c0,0,0,13.4,0,13.4v3.4Z"/>
        <path class="cls-2" d="M66.3,72s0,10,0,10c-.8,10.6,5.2,27.8,26.9,27.8s26.1-9.9,26.1-28.3v-1.3h-13.3v1.3c0,10.8-5,15.9-12.7,15.9s-13.3-4.8-14.1-15.4c0,0,0-10,0-10v-3.4s0-13.4,0-13.4c.8-10.6,5.4-15.4,14.1-15.4s12.7,5,12.7,15.9v4.3h13.3v-4.3c0-18.3-10.2-28.3-26.1-28.3s-15.8,2.9-20.4,8.4c-4.6-5.5-11.5-8.4-20.4-8.4s-15.2,2.8-19.7,8.1c-1.9-2.3-4.3-4.1-7-5.4l-7.6,10.5c4.8,1.7,7.6,6,8.3,13.3,0,.6,0,1.2,0,1.9v52.3h13.3v-52.3c0-10.8,5-15.9,12.7-15.9s13.3,4.8,14.1,15.4c0,0,0,13.4,0,13.4v3.4Z"/>
        <path class="cls-2" d="M66.2,72s0,10,0,10c-.8,10.6,5.2,27.8,26.9,27.8s26.1-9.9,26.1-28.3v-1.3h-13.3v1.3c0,10.8-5,15.9-12.7,15.9s-13.3-4.8-14.1-15.4c0,0,0-10,0-10v-3.4s0-13.4,0-13.4c.8-10.6,5.4-15.4,14.1-15.4s12.7,5,12.7,15.9v4.3h13.3v-4.3c0-18.3-10.2-28.3-26.1-28.3s-15.8,2.9-20.4,8.4c-4.6-5.5-11.5-8.4-20.4-8.4s-15.2,2.8-19.7,8.1c-1.9-2.3-4.3-4.1-7-5.4l-7.6,10.5c4.8,1.7,7.6,6,8.3,13.3,0,.6,0,1.2,0,1.9v52.3h13.3v-52.3c0-10.8,5-15.9,12.7-15.9s13.3,4.8,14.1,15.4c0,0,0,13.4,0,13.4v3.4Z"/>
        <path class="cls-2" d="M66.1,71.9s0,10,0,10c-.8,10.6,5.2,27.8,26.9,27.8s26.1-9.9,26.1-28.3v-1.3h-13.3v1.3c0,10.8-5,15.9-12.7,15.9s-13.3-4.8-14.1-15.4c0,0,0-10,0-10v-3.4s0-13.4,0-13.4c.8-10.6,5.4-15.4,14.1-15.4s12.7,5,12.7,15.9v4.3h13.3v-4.3c0-18.3-10.2-28.3-26.1-28.3s-15.8,2.9-20.4,8.4c-4.6-5.5-11.5-8.4-20.4-8.4s-15.2,2.8-19.7,8.1c-1.9-2.3-4.3-4.1-7-5.4l-7.6,10.5c4.8,1.7,7.6,6,8.3,13.3,0,.6,0,1.2,0,1.9v52.3h13.3v-52.3c0-10.8,5-15.9,12.7-15.9s13.3,4.8,14.1,15.4c0,0,0,13.4,0,13.4v3.4Z"/>
        <path class="cls-2" d="M66.1,71.8s0,10,0,10c-.8,10.6,5.2,27.8,26.9,27.8s26.1-9.9,26.1-28.3v-1.3h-13.3v1.3c0,10.8-5,15.9-12.7,15.9s-13.3-4.8-14.1-15.4c0,0,0-10,0-10v-3.4s0-13.4,0-13.4c.8-10.6,5.4-15.4,14.1-15.4s12.7,5,12.7,15.9v4.3h13.3v-4.3c0-18.3-10.2-28.3-26.1-28.3s-15.8,2.9-20.4,8.4c-4.6-5.5-11.5-8.4-20.4-8.4s-15.2,2.8-19.7,8.1c-1.9-2.3-4.3-4.1-7-5.4l-7.6,10.5c4.8,1.7,7.6,6,8.3,13.3,0,.6,0,1.2,0,1.9v52.3h13.3v-52.3c0-10.8,5-15.9,12.7-15.9s13.3,4.8,14.1,15.4c0,0,0,13.4,0,13.4v3.4Z"/>
        <path class="cls-2" d="M66,71.7s0,10,0,10c-.8,10.6,5.2,27.8,26.9,27.8s26.1-9.9,26.1-28.3v-1.3h-13.3v1.3c0,10.8-5,15.9-12.7,15.9s-13.3-4.8-14.1-15.4c0,0,0-10,0-10v-3.4s0-13.4,0-13.4c.8-10.6,5.4-15.4,14.1-15.4s12.7,5,12.7,15.9v4.3h13.3v-4.3c0-18.3-10.2-28.3-26.1-28.3s-15.8,2.9-20.4,8.4c-4.6-5.5-11.5-8.4-20.4-8.4s-15.2,2.8-19.7,8.1c-1.9-2.3-4.3-4.1-7-5.4l-7.6,10.5c4.8,1.7,7.6,6,8.3,13.3,0,.6,0,1.2,0,1.9v52.3h13.3v-52.3c0-10.8,5-15.9,12.7-15.9s13.3,4.8,14.1,15.4c0,0,0,13.4,0,13.4v3.4Z"/>
        <path class="cls-2" d="M65.9,71.7s0,10,0,10c-.8,10.6,5.2,27.8,26.9,27.8s26.1-9.9,26.1-28.3v-1.3h-13.3v1.3c0,10.8-5,15.9-12.7,15.9s-13.3-4.8-14.1-15.4c0,0,0-10,0-10v-3.4s0-13.4,0-13.4c.8-10.6,5.4-15.4,14.1-15.4s12.7,5,12.7,15.9v4.3h13.3v-4.3c0-18.3-10.2-28.3-26.1-28.3s-15.8,2.9-20.4,8.4c-4.6-5.5-11.5-8.4-20.4-8.4s-15.2,2.8-19.7,8.1c-1.9-2.3-4.3-4.1-7-5.4l-7.6,10.5c4.8,1.7,7.6,6,8.3,13.3,0,.6,0,1.2,0,1.9v52.3h13.3v-52.3c0-10.8,5-15.9,12.7-15.9s13.3,4.8,14.1,15.4c0,0,0,13.4,0,13.4v3.4Z"/>
        <path class="cls-2" d="M65.9,71.6s0,10,0,10c-.8,10.6,5.2,27.8,26.9,27.8s26.1-9.9,26.1-28.3v-1.3h-13.3v1.3c0,10.8-5,15.9-12.7,15.9s-13.3-4.8-14.1-15.4c0,0,0-10,0-10v-3.4s0-13.4,0-13.4c.8-10.6,5.4-15.4,14.1-15.4s12.7,5,12.7,15.9v4.3h13.3v-4.3c0-18.3-10.2-28.3-26.1-28.3s-15.8,2.9-20.4,8.4c-4.6-5.5-11.5-8.4-20.4-8.4s-15.2,2.8-19.7,8.1c-1.9-2.3-4.3-4.1-7-5.4l-7.6,10.5c4.8,1.7,7.6,6,8.3,13.3,0,.6,0,1.2,0,1.9v52.3h13.3v-52.3c0-10.8,5-15.9,12.7-15.9s13.3,4.8,14.1,15.4c0,0,0,13.4,0,13.4v3.4Z"/>
        <path class="cls-2" d="M65.8,71.5s0,10,0,10c-.8,10.6,5.2,27.8,26.9,27.8s26.1-9.9,26.1-28.3v-1.3h-13.3v1.3c0,10.8-5,15.9-12.7,15.9s-13.3-4.8-14.1-15.4c0,0,0-10,0-10v-3.4s0-13.4,0-13.4c.8-10.6,5.4-15.4,14.1-15.4s12.7,5,12.7,15.9v4.3h13.3v-4.3c0-18.3-10.2-28.3-26.1-28.3s-15.8,2.9-20.4,8.4c-4.6-5.5-11.5-8.4-20.4-8.4s-15.2,2.8-19.7,8.1c-1.9-2.3-4.3-4.1-7-5.4l-7.6,10.5c4.8,1.7,7.6,6,8.3,13.3,0,.6,0,1.2,0,1.9v52.3h13.3v-52.3c0-10.8,5-15.9,12.7-15.9s13.3,4.8,14.1,15.4c0,0,0,13.4,0,13.4v3.4Z"/>
        <path class="cls-2" d="M65.7,71.5s0,10,0,10c-.8,10.6,5.2,27.8,26.9,27.8s26.1-9.9,26.1-28.3v-1.3h-13.3v1.3c0,10.8-5,15.9-12.7,15.9s-13.3-4.8-14.1-15.4c0,0,0-10,0-10v-3.4s0-13.4,0-13.4c.8-10.6,5.4-15.4,14.1-15.4s12.7,5,12.7,15.9v4.3h13.3v-4.3c0-18.3-10.2-28.3-26.1-28.3s-15.8,2.9-20.4,8.4c-4.6-5.5-11.5-8.4-20.4-8.4s-15.2,2.8-19.7,8.1c-1.9-2.3-4.3-4.1-7-5.4l-7.6,10.5c4.8,1.7,7.6,6,8.3,13.3,0,.6,0,1.2,0,1.9v52.3h13.3v-52.3c0-10.8,5-15.9,12.7-15.9s13.3,4.8,14.1,15.4c0,0,0,13.4,0,13.4v3.4Z"/>
      </g>
      <g>
        <path class="cls-1" d="M70.5,83.6c0,0,0-.1,0-.2v-26.8c0,0,0-.1,0-.2-.5-6.9-2.6-11.8-6.3-14.7,2.4,3,3.9,7.2,4.3,12.7,0,0,0,.1,0,.2v26.8c0,0,0,.1,0,.2-.4,5.1,1,12.5,6,17.8.5.5,1,1,1.6,1.5-4.6-5.3-5.9-12.4-5.6-17.3Z"/>
        <path class="cls-1" d="M72,39.1c.5.6,1.3,1,2.2,1s1.6-.4,2.2-1c4.1-4.9,10.2-7.4,18.2-7.4s11.6,1.7,15.5,5c-4-4.6-9.9-7-17.5-7s-14.1,2.5-18.2,7.4c-.5.6-1.3,1-2.2,1s-1.1-.2-1.5-.5c.5.5.9.9,1.3,1.4Z"/>
        <path class="cls-1" d="M92.7,99.6c-4.4,0-7.9-1.1-10.6-3.3,2.8,3.5,7.1,5.3,12.6,5.3,9.3,0,15-6.4,15.5-17.2h5.5c0-.7.1-1.3.1-2h-7.6c-.5,10.8-6.2,17.2-15.5,17.2Z"/>
        <path class="cls-1" d="M110.2,56.6c-.1-6.8-2.2-12-6-15,2.6,3.2,4,7.8,4,13.6v1.4h2Z"/>
        <path class="cls-1" d="M31.9,38.8c.5.6,1.3,1,2.1,1,.8,0,1.6-.4,2.1-1,4-4.6,10.1-7.1,17.6-7.1s12,1.7,16,5.2c-4.1-4.7-10.1-7.2-18-7.2s-13.6,2.4-17.6,7.1c-.5.6-1.3,1-2.1,1-.6,0-1.2-.2-1.7-.5.5.5,1,1,1.5,1.5Z"/>
        <path class="cls-1" d="M28.5,104.6h2v-47.4c0-.6,0-1.2,0-1.7,0-.1,0-.3,0-.4-.7-6.1-2.7-10.5-6.1-13.3,2.2,2.7,3.6,6.5,4.1,11.3,0,.1,0,.3,0,.4,0,.6,0,1.1,0,1.7v49.4Z"/>
        <path class="cls-1" d="M27.8,35.2c.7.5,1.4,1,2.1,1.5-1.2-1.4-2.5-2.6-4-3.5l-4.2,5.8c.8.5,1.4,1.2,2.1,1.8l4.1-5.7Z"/>
      </g>
    </g>
  </g>
</svg>